<?xml version="1.0" standalone="no"?>
<svg version="1.0" xmlns="http://www.w3.org/2000/svg"
 width="500.000000pt" height="500.000000pt" viewBox="0 0 500.000000 500.000000"
 preserveAspectRatio="xMidYMid meet">

<g transform="translate(0.000000,500.000000) scale(0.100000,-0.100000)"
fill="#000000" stroke="none">
<path d="M2324 4989 c-885 -64 -1670 -592 -2059 -1384 -125 -254 -194 -475
-236 -756 -30 -202 -30 -496 0 -698 42 -281 110 -499 236 -756 302 -618 858
-1088 1520 -1285 246 -74 452 -103 720 -103 675 1 1294 261 1772 744 134 136
198 215 303 372 582 873 547 2037 -86 2877 -221 293 -515 542 -834 708 -325
169 -633 255 -1005 282 -154 11 -170 11 -331 -1z m-222 -1558 c111 -43 195
-147 229 -281 19 -74 20 -1078 2 -1156 -25 -104 -54 -164 -110 -224 -95 -103
-233 -146 -395 -122 -181 26 -282 115 -344 302 -16 50 -18 105 -22 574 -3 563
0 621 47 721 37 81 78 125 149 163 83 45 120 51 262 48 101 -2 136 -7 182 -25z
m1030 -9 c147 -72 208 -201 225 -479 l6 -103 -175 0 -175 0 -5 113 c-4 106
-15 152 -42 169 -23 16 -75 8 -103 -16 l-28 -24 -3 -514 c-2 -473 -1 -516 15
-547 23 -45 63 -59 107 -38 46 22 56 65 56 251 l0 156 -45 0 -45 0 0 155 0
155 220 0 220 0 0 -520 0 -520 -76 0 -75 0 -15 35 c-7 19 -21 51 -29 71 l-15
37 -29 -37 c-81 -102 -204 -143 -345 -116 -170 32 -263 153 -295 385 -14 99
-14 978 -1 1063 29 178 119 295 263 342 52 17 84 20 193 17 124 -2 134 -4 196
-35z m990 9 c111 -43 195 -147 229 -281 19 -74 20 -1078 2 -1156 -25 -104 -54
-164 -110 -224 -95 -103 -233 -146 -395 -122 -181 26 -282 115 -344 302 -16
50 -18 105 -22 574 -3 563 0 621 47 721 37 81 78 125 149 163 83 45 120 51
262 48 101 -2 136 -7 182 -25z m-3112 -721 l0 -740 183 -2 182 -3 3 -152 3
-153 -366 0 -365 0 0 895 0 895 180 0 180 0 0 -740z"/>
<path d="M1850 3110 c-11 -11 -22 -30 -25 -42 -3 -13 -5 -254 -3 -535 3 -497
4 -513 23 -532 34 -33 68 -36 101 -8 l29 25 0 535 c0 512 -1 536 -19 556 -25
27 -79 28 -106 1z"/>
<path d="M3870 3110 c-11 -11 -22 -30 -25 -42 -3 -13 -5 -254 -3 -535 3 -497
4 -513 23 -532 34 -33 68 -36 101 -8 l29 25 0 535 c0 512 -1 536 -19 556 -25
27 -79 28 -106 1z"/>
</g>
</svg>
