<?xml version="1.0" standalone="no"?>
<svg version="1.0" xmlns="http://www.w3.org/2000/svg"
 width="500.000000pt" height="500.000000pt" viewBox="0 0 500.000000 500.000000"
 preserveAspectRatio="xMidYMid meet">

<g transform="translate(0.000000,500.000000) scale(0.100000,-0.100000)"
fill="#000000" stroke="none">
<path d="M1756 3449 c-59 -14 -153 -68 -188 -108 -45 -51 -86 -145 -98 -227
-7 -47 -10 -247 -8 -590 4 -469 6 -524 22 -574 44 -134 114 -222 210 -266 79
-36 196 -51 291 -36 188 29 299 140 348 346 18 78 17 1082 -2 1156 -34 134
-118 238 -229 281 -46 18 -81 23 -182 25 -69 2 -142 -1 -164 -7z m200 -340
c18 -20 19 -44 19 -556 l0 -535 -29 -25 c-33 -28 -67 -25 -101 8 -19 19 -20
35 -23 532 -2 281 0 522 3 535 15 59 92 84 131 41z"/>
<path d="M2743 3440 c-144 -47 -234 -164 -263 -342 -13 -85 -13 -964 1 -1063
32 -232 125 -353 295 -385 141 -27 264 14 345 116 l29 37 15 -37 c8 -20 22
-52 29 -71 l15 -35 75 0 76 0 0 520 0 520 -220 0 -220 0 0 -155 0 -155 45 0
45 0 0 -156 c0 -186 -10 -229 -56 -251 -44 -21 -84 -7 -107 38 -16 31 -17 74
-15 547 l3 514 28 24 c28 24 80 32 103 16 27 -17 38 -63 42 -169 l5 -113 175
0 175 0 -6 103 c-17 278 -78 407 -225 479 -62 31 -72 33 -196 35 -109 3 -141
0 -193 -17z"/>
<path d="M3776 3449 c-59 -14 -153 -68 -188 -108 -45 -51 -86 -145 -98 -227
-7 -47 -10 -247 -8 -590 4 -469 6 -524 22 -574 44 -134 114 -222 210 -266 79
-36 196 -51 291 -36 188 29 299 140 348 346 18 78 17 1082 -2 1156 -34 134
-118 238 -229 281 -46 18 -81 23 -182 25 -69 2 -142 -1 -164 -7z m200 -340
c18 -20 19 -44 19 -556 l0 -535 -29 -25 c-33 -28 -67 -25 -101 8 -19 19 -20
35 -23 532 -2 281 0 522 3 535 15 59 92 84 131 41z"/>
<path d="M650 2555 l0 -895 365 0 366 0 -3 153 -3 152 -182 3 -183 2 0 740 0
740 -180 0 -180 0 0 -895z"/>
</g>
</svg>
